<?xml version="1.0" encoding="utf-8"?>
<!-- Generator: Adobe Illustrator 19.0.0, SVG Export Plug-In . SVG Version: 6.00 Build 0)  -->
<svg version="1.1" id="Layer_1" xmlns="http://www.w3.org/2000/svg" xmlns:xlink="http://www.w3.org/1999/xlink" x="0px" y="0px"
	 viewBox="0 0 50 50" style="enable-background:new 0 0 50 50;" xml:space="preserve">
<style type="text/css">
	.st0{fill:#3E4B60;}
</style>
<g id="XMLID_7_">
	<g id="XMLID_8_">
		<path id="XMLID_13_" class="st0" d="M3.1,26.1h29.6L25,33.8c-0.6,0.6-0.6,1.6,0,2.2c0.3,0.3,0.7,0.5,1,0.5c0.4,0,0.8-0.1,1-0.4
			l9.5-9.5c0.3-0.3,0.4-0.7,0.4-1c0-0.4-0.2-0.8-0.4-1L36.1,24c-0.1-0.1-0.2-0.3-0.4-0.4L27.1,15c-0.6-0.6-1.5-0.6-2.1,0
			s-0.6,1.4,0,2l6.3,6.2H3.1c-0.8,0-1.5,0.7-1.5,1.5C1.6,25.4,2.2,26.1,3.1,26.1L3.1,26.1z"/>
		<path id="XMLID_10_" class="st0" d="M47.9,44.1V7.2c0-3.6-2.9-7.1-6.5-7.1H22.1c-3.5,0-6.9,3.4-6.9,7.1V16c0,0.8,0.7,1.5,1.5,1.5
			c0.8,0,1.5-0.7,1.5-1.5V7.2c0-2,2-4.1,3.9-4.1h19.3c2,0,3.5,2.2,3.5,4.1V44c0,2-1.6,2.8-3.5,2.8H22.1c-1.8,0-3.9-0.7-3.9-2.8v-8.8
			c0-0.8-0.7-1.5-1.5-1.5c-0.8,0-1.5,0.7-1.5,1.5V44c0,3.5,3.1,5.7,6.9,5.7h19.3C45.2,49.8,47.9,47.4,47.9,44.1L47.9,44.1z"/>
	</g>
</g>
</svg>
