<?xml version="1.0" encoding="utf-8"?>
<!-- Generator: Adobe Illustrator 16.0.0, SVG Export Plug-In . SVG Version: 6.00 Build 0)  -->
<!DOCTYPE svg PUBLIC "-//W3C//DTD SVG 1.1//EN" "http://www.w3.org/Graphics/SVG/1.1/DTD/svg11.dtd">
<svg version="1.1" id="Calque_1" xmlns="http://www.w3.org/2000/svg" xmlns:xlink="http://www.w3.org/1999/xlink" x="0px" y="0px"
	 width="72.5px" height="66.833px" viewBox="0 0 72.5 66.833" enable-background="new 0 0 72.5 66.833" xml:space="preserve">
<g>
	<g>
		<path fill="#FFFFFF" d="M46.083,27.087h14.023c0.828,0,1.5-0.672,1.5-1.5v-7.819l0.65,0.565c0.285,0.246,0.635,0.367,0.982,0.367
			c0.42,0,0.838-0.176,1.135-0.518c0.543-0.625,0.477-1.573-0.148-2.115l-10.177-8.83c-0.564-0.491-1.403-0.49-1.97,0.002
			l-10.118,8.825c-0.625,0.545-0.688,1.493-0.146,2.116c0.545,0.624,1.489,0.69,2.117,0.146l0.649-0.567v7.828
			C44.583,26.415,45.254,27.087,46.083,27.087z M53.068,10.359l5.538,4.806v8.923h-3.734v-4.221h-3.555v4.221h-3.734v-8.944
			L53.068,10.359z"/>
		<path fill="#FFFFFF" d="M63.016,1H42.86c-4.825,0-8.75,3.926-8.75,8.75v15.418c0,4.824,3.925,8.75,8.75,8.75h0.893l-5.109,4.74
			c-0.708,0.656-0.75,1.765-0.094,2.474c0.346,0.371,0.813,0.56,1.283,0.56c0.428,0,0.854-0.154,1.19-0.468l11.626-10.806H42.86
			c-2.895,0-5.25-2.354-5.25-5.25V9.75c0-2.896,2.355-5.25,5.25-5.25h20.156c2.895,0,5.25,2.354,5.25,5.25v15.418
			c0,2.896-2.355,5.25-5.25,5.25h-5.168l-3.765,3.5h8.933c4.824,0,8.75-3.926,8.75-8.75V9.75C71.766,4.926,67.84,1,63.016,1z"/>
	</g>
	<g>
		<path fill="#FFFFFF" d="M19.133,45.401c4.97,0,10.746-5.388,10.746-12.335v-2.487c0-4.761-2.823-9.848-10.746-9.848
			c-7.425,0-10.748,4.945-10.748,9.848v2.487C8.385,39.9,14.265,45.401,19.133,45.401z M11.885,30.579
			c0-3.915,2.776-6.348,7.248-6.348c1.806,0,3.295,0.341,4.446,0.989c-0.356,0.914-1.887,3.378-8.168,4.41
			c-0.816,0.134-1.371,0.905-1.237,1.723c0.121,0.735,0.757,1.257,1.479,1.257c0.081,0,0.163-0.007,0.245-0.021
			c6.009-0.986,8.666-3.287,9.843-5.081c0.417,0.865,0.639,1.889,0.639,3.07v2.487c0,5.125-4.328,8.835-7.246,8.835
			c-2.862,0-7.248-3.958-7.248-8.835L11.885,30.579L11.885,30.579z"/>
		<path fill="#FFFFFF" d="M19.132,47.716c-0.967,0-1.75,0.782-1.75,1.75v15.814h3.5V49.467
			C20.882,48.499,20.099,47.716,19.132,47.716z"/>
		<g>
			<path fill="#FFFFFF" d="M11.727,46.017c-0.01,0.001-0.018,0.004-0.027,0.005l-0.188,0.036l-0.389,0.129l-2.842,0.95
				C7.454,47.362,1,49.311,1,55.33v9.951h3.483V55.33c0-3.555,4.535-4.77,4.723-4.816l1.125-0.375l1.322,15.143h3.513l-1.543-17.674
				C13.539,46.645,12.694,45.927,11.727,46.017z"/>
			<path fill="#FFFFFF" d="M29.943,47.137l-2.705-0.918l-0.515-0.172l-0.198-0.03c-0.95-0.067-1.776,0.64-1.859,1.59l-1.543,17.674
				h3.514l1.319-15.117l0.001-0.014l0.973,0.324l0.124,0.037c0.193,0.049,4.745,1.264,4.745,4.818v9.951h3.457V55.33
				C37.254,49.311,30.771,47.361,29.943,47.137z"/>
		</g>
	</g>
</g>
</svg>
