<?xml version="1.0" encoding="utf-8"?>
<!-- Generator: Adobe Illustrator 19.0.0, SVG Export Plug-In . SVG Version: 6.00 Build 0)  -->
<svg version="1.1" id="Layer_1" xmlns="http://www.w3.org/2000/svg" xmlns:xlink="http://www.w3.org/1999/xlink" x="0px" y="0px"
	 viewBox="0 0 50 50" style="enable-background:new 0 0 50 50;" xml:space="preserve">
<style type="text/css">
	.st0{fill:#1C9F79;}
</style>
<g id="XMLID_1_">
	<path id="XMLID_2_" class="st0" d="M31.8,20.8h9.8c0.6,0,1-0.5,1-1v-5.5l0.5,0.4c0.2,0.2,0.4,0.3,0.7,0.3c0.3,0,0.6-0.1,0.8-0.4
		c0.4-0.4,0.3-1.1-0.1-1.5l-7.1-6.2c-0.4-0.3-1-0.3-1.4,0l-7.1,6.2c-0.4,0.4-0.5,1-0.1,1.5c0.4,0.4,1,0.5,1.5,0.1l0.5-0.4v5.5
		C30.7,20.3,31.2,20.8,31.8,20.8z M36.7,9.1l3.9,3.4v6.2h-2.6v-3h-2.5v3h-2.6v-6.3L36.7,9.1z"/>
	<path id="XMLID_6_" class="st0" d="M43.6,2.5H29.5c-3.4,0-6.1,2.7-6.1,6.1v10.8c0,3.4,2.7,6.1,6.1,6.1h0.6l-3.6,3.3
		c-0.5,0.5-0.5,1.2-0.1,1.7c0.2,0.3,0.6,0.4,0.9,0.4c0.3,0,0.6-0.1,0.8-0.3l8.1-7.6h-6.8c-2,0-3.7-1.6-3.7-3.7V8.6
		c0-2,1.6-3.7,3.7-3.7h14.1c2,0,3.7,1.6,3.7,3.7v10.8c0,2-1.6,3.7-3.7,3.7H40l-2.6,2.4h6.2c3.4,0,6.1-2.7,6.1-6.1V8.6
		C49.8,5.3,47,2.5,43.6,2.5z"/>
</g>
<g id="XMLID_3_">
	<path id="XMLID_4_" class="st0" d="M12.9,33.6c3.5,0,7.5-3.8,7.5-8.6v-1.7c0-3.3-2-6.9-7.5-6.9c-5.2,0-7.5,3.5-7.5,6.9v1.7
		C5.4,29.7,9.5,33.6,12.9,33.6z M7.9,23.2c0-2.7,1.9-4.4,5.1-4.4c1.3,0,2.3,0.2,3.1,0.7c-0.3,0.6-1.3,2.4-5.7,3.1
		c-0.6,0.1-1,0.6-0.9,1.2c0.1,0.5,0.5,0.9,1,0.9c0.1,0,0.1,0,0.2,0c4.2-0.7,6.1-2.3,6.9-3.6c0.3,0.6,0.4,1.3,0.4,2.1v1.7
		c0,3.6-3,6.2-5.1,6.2c-2,0-5.1-2.8-5.1-6.2V23.2z"/>
	<path id="XMLID_10_" class="st0" d="M12.9,35.2c-0.7,0-1.2,0.5-1.2,1.2v11.1h2.4V36.4C14.2,35.7,13.6,35.2,12.9,35.2z"/>
	<g id="XMLID_11_">
		<path id="XMLID_12_" class="st0" d="M7.7,34C7.7,34,7.7,34,7.7,34l-0.2,0l-0.3,0.1l-2,0.7c-0.6,0.2-5.1,1.5-5.1,5.7v7h2.4v-7
			c0-2.5,3.2-3.3,3.3-3.4l0.8-0.3l0.9,10.6h2.5L9.1,35.1C9,34.4,8.4,33.9,7.7,34z"/>
		<path id="XMLID_13_" class="st0" d="M20.5,34.8l-1.9-0.6L18.2,34l-0.1,0c-0.7,0-1.2,0.4-1.3,1.1l-1.1,12.4h2.5l0.9-10.6l0,0
			l0.7,0.2l0.1,0c0.1,0,3.3,0.9,3.3,3.4v7h2.4v-7C25.6,36.3,21.1,34.9,20.5,34.8z"/>
	</g>
</g>
</svg>
