<?xml version="1.0" encoding="utf-8"?>
<!-- Generator: Adobe Illustrator 19.0.0, SVG Export Plug-In . SVG Version: 6.00 Build 0)  -->
<svg version="1.1" id="Layer_1" xmlns="http://www.w3.org/2000/svg" xmlns:xlink="http://www.w3.org/1999/xlink" x="0px" y="0px"
	 viewBox="0 0 68 68" style="enable-background:new 0 0 68 68;" xml:space="preserve">
<style type="text/css">
	.st0{fill:#1C9F79;}
	.st1{fill:#3E4B60;}
</style>
<g id="XMLID_17_">
	<path id="XMLID_19_" class="st0" d="M43.1,26.1h12.5c0.7,0,1.3-0.6,1.3-1.3v-7l0.6,0.5c0.3,0.2,0.6,0.3,0.9,0.3
		c0.4,0,0.7-0.2,1-0.5c0.5-0.6,0.4-1.4-0.1-1.9l-9.1-7.9C49.7,8,49,8,48.5,8.4l-9,7.9c-0.6,0.5-0.6,1.3-0.1,1.9
		c0.5,0.6,1.3,0.6,1.9,0.1l0.6-0.5v7C41.8,25.5,42.4,26.1,43.1,26.1z M49.3,11.2l4.9,4.3v7.9H51v-3.8h-3.2v3.8h-3.3v-8L49.3,11.2z"
		/>
	<path id="XMLID_18_" class="st0" d="M58.2,2.9h-18c-4.3,0-7.8,3.5-7.8,7.8v13.7c0,4.3,3.5,7.8,7.8,7.8H41l-4.6,4.2
		c-0.6,0.6-0.7,1.6-0.1,2.2c0.3,0.3,0.7,0.5,1.1,0.5c0.4,0,0.8-0.1,1.1-0.4L49,29.1h-8.7c-2.6,0-4.7-2.1-4.7-4.7V10.7
		c0-2.6,2.1-4.7,4.7-4.7h18c2.6,0,4.7,2.1,4.7,4.7v13.7c0,2.6-2.1,4.7-4.7,4.7h-4.6l-3.4,3.1h8c4.3,0,7.8-3.5,7.8-7.8V10.7
		C66,6.4,62.5,2.9,58.2,2.9z"/>
</g>
<g id="XMLID_9_">
	<path id="XMLID_14_" class="st1" d="M19.1,42.4c4.4,0,9.6-4.8,9.6-11v-2.2c0-4.2-2.5-8.8-9.6-8.8c-6.6,0-9.6,4.4-9.6,8.8v2.2
		C9.6,37.5,14.8,42.4,19.1,42.4z M12.7,29.2c0-3.5,2.5-5.7,6.5-5.7c1.6,0,2.9,0.3,4,0.9c-0.3,0.8-1.7,3-7.3,3.9
		c-0.7,0.1-1.2,0.8-1.1,1.5c0.1,0.7,0.7,1.1,1.3,1.1c0.1,0,0.1,0,0.2,0c5.4-0.9,7.7-2.9,8.8-4.5c0.4,0.8,0.6,1.7,0.6,2.7v2.2
		c0,4.6-3.9,7.9-6.5,7.9c-2.5,0-6.5-3.5-6.5-7.9V29.2z"/>
	<path id="XMLID_13_" class="st1" d="M19.1,44.5c-0.9,0-1.6,0.7-1.6,1.6v14.1h3.1V46C20.7,45.2,20,44.5,19.1,44.5z"/>
	<g id="XMLID_10_">
		<path id="XMLID_12_" class="st1" d="M12.5,43C12.5,43,12.5,43,12.5,43l-0.2,0L12,43.1L9.5,44C8.7,44.2,3,45.9,3,51.3v8.9h3.1v-8.9
			c0-3.2,4-4.2,4.2-4.3l1-0.3l1.2,13.5h3.1l-1.4-15.7C14.1,43.5,13.4,42.9,12.5,43z"/>
		<path id="XMLID_11_" class="st1" d="M28.8,44l-2.4-0.8L25.9,43l-0.2,0c-0.8-0.1-1.6,0.6-1.7,1.4l-1.4,15.7h3.1L27,46.7l0,0
			l0.9,0.3l0.1,0c0.2,0,4.2,1.1,4.2,4.3v8.9h3.1v-8.9C35.3,45.9,29.5,44.2,28.8,44z"/>
	</g>
</g>
</svg>
