<?xml version="1.0" encoding="utf-8"?>
<!-- Generator: Adobe Illustrator 19.0.0, SVG Export Plug-In . SVG Version: 6.00 Build 0)  -->
<svg version="1.1" id="Layer_1" xmlns="http://www.w3.org/2000/svg" xmlns:xlink="http://www.w3.org/1999/xlink" x="0px" y="0px"
	 viewBox="0 0 50 50" style="enable-background:new 0 0 50 50;" xml:space="preserve">
<style type="text/css">
	.st0{fill:#0E7D5C;stroke:#0E7D5C;stroke-width:2;stroke-miterlimit:10;}
</style>
<path id="XMLID_21_" class="st0" d="M21.4,13.8h19.1c0.4,0,0.8-0.4,0.8-0.8c0-0.4-0.4-0.8-0.8-0.8H21.4c-0.4,0-0.8,0.4-0.8,0.8
	C20.5,13.4,20.9,13.8,21.4,13.8L21.4,13.8z M21.4,13.8"/>
<path id="XMLID_18_" class="st0" d="M21.4,26h19.1c0.4,0,0.8-0.4,0.8-0.8s-0.4-0.8-0.8-0.8H21.4c-0.4,0-0.8,0.4-0.8,0.8
	S20.9,26,21.4,26L21.4,26z M21.4,26"/>
<path id="XMLID_15_" class="st0" d="M21.4,38.1h19.1c0.4,0,0.8-0.4,0.8-0.8c0-0.4-0.4-0.8-0.8-0.8H21.4c-0.4,0-0.8,0.4-0.8,0.8
	C20.5,37.8,20.9,38.1,21.4,38.1L21.4,38.1z M21.4,38.1"/>
<path id="XMLID_11_" class="st0" d="M48,1.2H2.1C1.7,1.2,1.3,1.5,1.3,2v45.9c0,0.4,0.4,0.8,0.8,0.8H48c0.4,0,0.8-0.4,0.8-0.8V2
	C48.8,1.5,48.5,1.2,48,1.2L48,1.2z M47.2,47.1H2.9V2.8h44.3V47.1z M47.2,47.1"/>
<path id="XMLID_8_" class="st0" d="M10.5,15l2-1l2,1L14,12.8l1.6-1.6l-2.2-0.3l-1-2l-1,2l-2.2,0.3l1.6,1.6L10.5,15z M10.5,15"/>
<path id="XMLID_5_" class="st0" d="M10.5,27.2l2-1l2,1L14,25l1.6-1.6l-2.2-0.3l-1-2l-1,2l-2.2,0.3l1.6,1.6L10.5,27.2z M10.5,27.2"/>
<path id="XMLID_2_" class="st0" d="M10.5,39.7l2-1l2,1L14,37.5l1.6-1.6l-2.2-0.3l-1-2l-1,2L9.2,36l1.6,1.6L10.5,39.7z M10.5,39.7"/>
</svg>
