<?xml version="1.0" encoding="utf-8"?>
<!-- Generator: Adobe Illustrator 19.0.0, SVG Export Plug-In . SVG Version: 6.00 Build 0)  -->
<svg version="1.1" id="Layer_1" xmlns="http://www.w3.org/2000/svg" xmlns:xlink="http://www.w3.org/1999/xlink" x="0px" y="0px"
	 viewBox="0 0 300 300" style="enable-background:new 0 0 300 300;" xml:space="preserve">
<style type="text/css">
	.st0{fill:#107D5D;stroke:#107D5D;stroke-width:8;stroke-miterlimit:10;}
</style>
<g id="XMLID_6_">
	<path id="XMLID_10_" class="st0" d="M252.1,47.9C224.8,20.7,188.6,5.6,150,5.6c-38.6,0-74.8,15.1-102.1,42.3
		c-52.6,52.6-56.4,136.7-9.6,193.6c-6.5,13.2-14.1,22.1-22.7,26.3c-5.3,2.6-8.2,8.3-7.4,14.1c0.9,5.9,5.4,10.4,11.2,11.3
		c3.2,0.5,6.7,0.8,10.2,0.8l0,0c17.7,0,36.3-6.1,51.9-16.8c20.9,11.2,44.4,17.2,68.4,17.2c38.6,0,74.8-15,102.1-42.3
		c27.3-27.3,42.3-63.6,42.3-102.1S279.3,75.2,252.1,47.9z M240.5,240.5C216.3,264.7,184.2,278,150,278c-22.9,0-45.3-6.1-64.8-17.6
		c-1.3-0.7-2.7-1.1-4.1-1.1c-1.8,0-3.6,0.6-5,1.7c-18.5,14.3-37.1,16.4-45.3,16.6c9.7-7.3,17.9-18.5,24.7-34.2
		c1.3-2.9,0.7-6.3-1.4-8.7C9.3,184.2,11.7,107.1,59.5,59.4c24.2-24.2,56.4-37.5,90.5-37.5c34.2,0,66.3,13.3,90.5,37.5
		C290.5,109.4,290.5,190.6,240.5,240.5z"/>
	<path id="XMLID_3_" class="st0" d="M210.5,98.5H89.5c-4.5,0-8.2,3.6-8.2,8.2c0,4.5,3.6,8.2,8.2,8.2h120.9c4.5,0,8.2-3.6,8.2-8.2
		C218.6,102.1,214.9,98.5,210.5,98.5z"/>
	<path id="XMLID_2_" class="st0" d="M192.5,141.8h-103c-4.5,0-8.2,3.6-8.2,8.2c0,4.5,3.6,8.2,8.2,8.2h103c4.5,0,8.2-3.6,8.2-8.2
		C200.7,145.5,197,141.8,192.5,141.8z"/>
	<path id="XMLID_1_" class="st0" d="M161.9,185.2H89.5c-4.5,0-8.2,3.6-8.2,8.2c0,4.5,3.6,8.2,8.2,8.2h72.4c4.5,0,8.2-3.6,8.2-8.2
		C170.1,188.8,166.4,185.2,161.9,185.2z"/>
</g>
</svg>
