<?xml version="1.0" encoding="utf-8"?>
<!-- Generator: Adobe Illustrator 16.0.0, SVG Export Plug-In . SVG Version: 6.00 Build 0)  -->
<!DOCTYPE svg PUBLIC "-//W3C//DTD SVG 1.1//EN" "http://www.w3.org/Graphics/SVG/1.1/DTD/svg11.dtd">
<svg version="1.1" id="Calque_1" xmlns="http://www.w3.org/2000/svg" xmlns:xlink="http://www.w3.org/1999/xlink" x="0px" y="0px"
	 width="69.25px" height="56.75px" viewBox="0 0 69.25 56.75" enable-background="new 0 0 69.25 56.75" xml:space="preserve">
<g>
	<path fill="#FFFFFF" d="M57.641,2c-3.933,0-7.116,3.185-7.116,7.113c0,3.929,3.185,7.113,7.116,7.113
		c3.935,0,7.118-3.185,7.118-7.113C64.76,5.185,61.575,2,57.641,2z M57.641,12.726c-1.994,0-3.616-1.621-3.616-3.613
		S55.646,5.5,57.641,5.5c1.996,0,3.618,1.621,3.618,3.613S59.637,12.726,57.641,12.726z"/>
	<g>
		<path fill="#FFFFFF" d="M37.992,52.517V41.175c0-0.966-0.784-1.75-1.75-1.75H25.721c-0.967,0-1.75,0.784-1.75,1.75v11.343h-11.42
			V32.034l18.383-16.462l13.11,11.668v-0.967c0-1.133,0.196-2.219,0.542-3.235L32.093,11.919c-0.665-0.592-1.668-0.59-2.331,0.003
			L9.633,29.95c-0.37,0.332-0.582,0.806-0.582,1.304v23.014c0,0.966,0.783,1.75,1.75,1.75h16.662l0.008-13.093h7.021l0.006,13.093
			H48.27v-3.5L37.992,52.517L37.992,52.517z"/>
		<path fill="#FFFFFF" d="M48.813,17.718L32.045,3.169c-0.66-0.573-1.641-0.57-2.297,0.003l-10.701,9.335V9.44
			c0-0.966-0.784-1.75-1.75-1.75h-6.574c-0.967,0-1.75,0.784-1.75,1.75v11.854L1.6,27.727c-0.729,0.635-0.804,1.741-0.169,2.47
			c0.636,0.729,1.741,0.803,2.47,0.168l8.582-7.486l-0.01-11.688h3.074l0.002,9.013L30.902,6.81l15.287,13.265
			C46.918,19.143,47.807,18.346,48.813,17.718z"/>
	</g>
	<path fill="#FFFFFF" d="M61.152,19.187h-7.021c-3.897,0-7.087,3.189-7.087,7.087v9.74c0,2.881,1.744,5.37,4.228,6.476L51.27,55.95
		l3.5,0.008L54.783,39.6h-0.652c-1.979,0-3.587-1.608-3.587-3.587v-9.74c0-1.978,1.608-3.587,3.587-3.587h7.021
		c1.978,0,3.586,1.609,3.586,3.587v9.74c0,1.979-1.608,3.587-3.586,3.587H60.5l0.014,16.358h3.5V42.487
		c2.481-1.104,4.226-3.594,4.226-6.475v-9.74C68.238,22.376,65.05,19.187,61.152,19.187z"/>
</g>
</svg>
