<?xml version="1.0" encoding="utf-8"?>
<!-- Generator: Adobe Illustrator 16.0.0, SVG Export Plug-In . SVG Version: 6.00 Build 0)  -->
<!DOCTYPE svg PUBLIC "-//W3C//DTD SVG 1.1//EN" "http://www.w3.org/Graphics/SVG/1.1/DTD/svg11.dtd">
<svg version="1.1" id="Calque_1" xmlns="http://www.w3.org/2000/svg" xmlns:xlink="http://www.w3.org/1999/xlink" x="0px" y="0px"
	 width="124px" height="96px" viewBox="0 0 124 96" enable-background="new 0 0 124 96" xml:space="preserve">
<g>
	<path fill="#FFFFFF" d="M85.271,21.241c-3.932,0-7.116,3.185-7.116,7.113c0,3.929,3.185,7.113,7.116,7.113
		c3.935,0,7.119-3.185,7.119-7.113C92.391,24.426,89.206,21.241,85.271,21.241z M85.271,31.967c-1.994,0-3.616-1.621-3.616-3.613
		s1.622-3.613,3.616-3.613c1.996,0,3.619,1.621,3.619,3.613S87.268,31.967,85.271,31.967z"/>
	<g>
		<path fill="#FFFFFF" d="M65.623,71.758V60.416c0-0.966-0.784-1.75-1.75-1.75H53.352c-0.967,0-1.75,0.784-1.75,1.75v11.343h-11.42
			V51.276l18.383-16.463l13.11,11.668v-0.967c0-1.133,0.196-2.219,0.542-3.236L59.724,31.16c-0.665-0.592-1.668-0.59-2.331,0.003
			L37.264,49.191c-0.37,0.332-0.582,0.806-0.582,1.304v23.014c0,0.966,0.783,1.75,1.75,1.75h16.662l0.008-13.093h7.021l0.006,13.093
			H75.9v-3.5H65.623z"/>
		<path fill="#FFFFFF" d="M76.444,36.959L59.676,22.41c-0.66-0.573-1.641-0.57-2.297,0.003l-10.701,9.335v-3.066
			c0-0.966-0.784-1.75-1.75-1.75h-6.574c-0.967,0-1.75,0.784-1.75,1.75v11.854l-7.373,6.432c-0.729,0.635-0.804,1.741-0.169,2.469
			c0.636,0.729,1.741,0.803,2.47,0.168l8.582-7.486l-0.01-11.687h3.074l0.002,9.012l15.353-13.393L73.82,39.316
			C74.549,38.384,75.438,37.587,76.444,36.959z"/>
	</g>
	<path fill="#FFFFFF" d="M88.783,38.428h-7.021c-3.898,0-7.087,3.189-7.087,7.087v9.74c0,2.881,1.744,5.37,4.227,6.475L78.9,75.192
		l3.501,0.007l0.013-16.358h-0.652c-1.979,0-3.587-1.609-3.587-3.587v-9.74c0-1.978,1.608-3.587,3.587-3.587h7.021
		c1.978,0,3.586,1.609,3.586,3.587v9.74c0,1.978-1.608,3.587-3.586,3.587h-0.652l0.014,16.358h3.5v-13.47
		c2.481-1.105,4.225-3.594,4.225-6.475v-9.74C95.869,41.617,92.681,38.428,88.783,38.428z"/>
</g>
</svg>
