<?xml version="1.0" encoding="utf-8"?>
<!-- Generator: Adobe Illustrator 19.0.0, SVG Export Plug-In . SVG Version: 6.00 Build 0)  -->
<svg version="1.1" id="Layer_1" xmlns="http://www.w3.org/2000/svg" xmlns:xlink="http://www.w3.org/1999/xlink" x="0px" y="0px"
	 viewBox="0 0 50 50" style="enable-background:new 0 0 50 50;" xml:space="preserve">
<style type="text/css">
	.st0{fill:#1A9F79;}
</style>
<path id="XMLID_1_" class="st0" d="M42,5.1c-2.9,0-5.3,2.3-5.3,5.2c0,2.9,2.3,5.2,5.3,5.2c2.9,0,5.3-2.3,5.3-5.2
	C47.2,7.4,44.9,5.1,42,5.1z M42,13c-1.5,0-2.7-1.2-2.7-2.7s1.2-2.7,2.7-2.7c1.5,0,2.7,1.2,2.7,2.7S43.5,13,42,13z"/>
<g id="XMLID_2_">
	<path id="XMLID_3_" class="st0" d="M27.5,42.3V34c0-0.7-0.6-1.3-1.3-1.3h-7.8c-0.7,0-1.3,0.6-1.3,1.3v8.4H8.7V27.2l13.6-12.1
		l9.7,8.6V23c0-0.8,0.1-1.6,0.4-2.4l-9.2-8.2c-0.5-0.4-1.2-0.4-1.7,0L6.6,25.7c-0.3,0.2-0.4,0.6-0.4,1v17c0,0.7,0.6,1.3,1.3,1.3
		h12.3l0-9.7h5.2l0,9.7h10.2v-2.6H27.5z"/>
	<path id="XMLID_6_" class="st0" d="M35.5,16.7L23.1,5.9c-0.5-0.4-1.2-0.4-1.7,0l-7.9,6.9v-2.3c0-0.7-0.6-1.3-1.3-1.3H7.4
		c-0.7,0-1.3,0.6-1.3,1.3v8.7l-5.4,4.7c-0.5,0.5-0.6,1.3-0.1,1.8C1,26.4,1.8,26.5,2.3,26l6.3-5.5l0-8.6h2.3l0,6.6l11.3-9.9l11.3,9.8
		C34.1,17.7,34.7,17.1,35.5,16.7z"/>
</g>
<path id="XMLID_7_" class="st0" d="M44.6,17.8h-5.2c-2.9,0-5.2,2.4-5.2,5.2v7.2c0,2.1,1.3,4,3.1,4.8l0,9.9l2.6,0l0-12.1h-0.5
	c-1.5,0-2.6-1.2-2.6-2.6V23c0-1.5,1.2-2.6,2.6-2.6h5.2c1.5,0,2.6,1.2,2.6,2.6v7.2c0,1.5-1.2,2.6-2.6,2.6h-0.5l0,12.1h2.6v-9.9
	c1.8-0.8,3.1-2.7,3.1-4.8V23C49.8,20.1,47.5,17.8,44.6,17.8z"/>
</svg>
