<?xml version="1.0" encoding="utf-8"?>
<!-- Generator: Adobe Illustrator 19.0.0, SVG Export Plug-In . SVG Version: 6.00 Build 0)  -->
<svg version="1.1" id="Layer_1" xmlns="http://www.w3.org/2000/svg" xmlns:xlink="http://www.w3.org/1999/xlink" x="0px" y="0px"
	 viewBox="0 0 68 68" style="enable-background:new 0 0 68 68;" xml:space="preserve">
<style type="text/css">
	.st0{fill:#1C9F79;}
	.st1{fill:#3E4B60;}
</style>
<path id="XMLID_6_" class="st0" d="M57,6.4c-3.9,0-7.1,3.2-7.1,7.1c0,3.9,3.2,7.1,7.1,7.1c3.9,0,7.1-3.2,7.1-7.1
	C64.1,9.6,60.9,6.4,57,6.4z M57,17.1c-2,0-3.6-1.6-3.6-3.6S55,9.9,57,9.9c2,0,3.6,1.6,3.6,3.6S59,17.1,57,17.1z"/>
<g id="XMLID_3_">
	<path id="XMLID_5_" class="st1" d="M37.4,56.8V45.5c0-1-0.8-1.7-1.7-1.7H25.1c-1,0-1.7,0.8-1.7,1.7v11.3H12V36.4L30.3,20l13.1,11.6
		v-1c0-1.1,0.2-2.2,0.5-3.2L31.5,16.3c-0.7-0.6-1.7-0.6-2.3,0l-20.1,18c-0.4,0.3-0.6,0.8-0.6,1.3v23c0,1,0.8,1.7,1.7,1.7h16.6
		l0-13.1h7l0,13.1h13.7v-3.5H37.4z"/>
	<path id="XMLID_4_" class="st1" d="M48.2,22.1L31.4,7.6c-0.7-0.6-1.6-0.6-2.3,0l-10.7,9.3v-3.1c0-1-0.8-1.7-1.7-1.7h-6.6
		c-1,0-1.7,0.8-1.7,1.7v11.8L1,32.1c-0.7,0.6-0.8,1.7-0.2,2.5c0.6,0.7,1.7,0.8,2.5,0.2l8.6-7.5l0-11.7H15l0,9l15.3-13.4l15.3,13.2
		C46.3,23.5,47.1,22.7,48.2,22.1z"/>
</g>
<path id="XMLID_2_" class="st0" d="M60.5,23.6h-7c-3.9,0-7.1,3.2-7.1,7.1v9.7c0,2.9,1.7,5.4,4.2,6.5l0,13.4l3.5,0l0-16.3h-0.7
	c-2,0-3.6-1.6-3.6-3.6v-9.7c0-2,1.6-3.6,3.6-3.6h7c2,0,3.6,1.6,3.6,3.6v9.7c0,2-1.6,3.6-3.6,3.6h-0.7l0,16.3h3.5V46.8
	c2.5-1.1,4.2-3.6,4.2-6.5v-9.7C67.5,26.8,64.4,23.6,60.5,23.6z"/>
</svg>
