<?xml version="1.0" encoding="utf-8"?>
<!-- Generator: Adobe Illustrator 19.0.0, SVG Export Plug-In . SVG Version: 6.00 Build 0)  -->
<svg version="1.1" id="Layer_1" xmlns="http://www.w3.org/2000/svg" xmlns:xlink="http://www.w3.org/1999/xlink" x="0px" y="0px"
	 viewBox="0 0 177 50" style="enable-background:new 0 0 177 50;" xml:space="preserve">
<style type="text/css">
	.st0{fill:url(#Path-3-Copy-2_1_);}
	.st1{fill:url(#Path-3-Copy_1_);}
	.st2{fill:#FFFFFF;}
</style>
<g id="Logo">
	<g id="_x31__x5F_logo">
		<g id="logo_x2F_white" transform="translate(0.000000, 81.000000)">
			<g id="Group">
				<g id="Group-2-Copy-2">
					<g id="Group-Copy">
						
							<linearGradient id="Path-3-Copy-2_1_" gradientUnits="userSpaceOnUse" x1="-214.2748" y1="338.2454" x2="-214.2748" y2="338.5009" gradientTransform="matrix(68.2457 0 0 -119.644 14660.5703 40431.5898)">
							<stop  offset="0" style="stop-color:#93CFA5"/>
							<stop  offset="1" style="stop-color:#009976"/>
						</linearGradient>
						<path id="Path-3-Copy-2" class="st0" d="M25.6-73l14,7.3v17.9c0,0,0,0.6-0.1,1s-1,0.8-1,0.8l-6.7,3.7c0,0-0.4,0.1-0.4,0.4
							c0,0.3,0.2,0.4,0.2,0.4l7.6,4c0,0,0.2,0.1,0.4,0.1c0.2,0,0.4-0.1,0.4-0.1c0.7-0.4,8.4-4.1,8.7-4.5c0.3-0.4,0.3-1.2,0.3-1.2
							V-61l-3.4-6.4c-0.9-1.7-3-3.7-4.8-4.5l-15.5-7.1L25.6-73z"/>
						
							<linearGradient id="Path-3-Copy_1_" gradientUnits="userSpaceOnUse" x1="-215.142" y1="338.8634" x2="-215.3689" y2="338.5461" gradientTransform="matrix(136.3557 0 0 -136.2155 29372.3262 46079.7695)">
							<stop  offset="0" style="stop-color:#93CFA5"/>
							<stop  offset="0.6841" style="stop-color:#2CB88A"/>
							<stop  offset="1" style="stop-color:#009976"/>
						</linearGradient>
						<path id="Path-3-Copy" class="st1" d="M1.9-41.9c0.1,0.2,0.2,0.4,0.2,0.4l11.1,8.8c0,0,0.3,0.2,0.5,0.1
							c0.2-0.1,0.2-0.5,0.2-0.5v-27.4c0,0,0-0.3,0.1-0.5c0.1-0.2,0.3-0.4,0.3-0.4l12.9-8.9c0,0,0.4-0.3,0.7-0.3s0.7,0.3,0.7,0.3
							L49.1-61l-4.4-8.9c0,0-0.1-0.3-0.4-0.5s-0.6-0.4-0.6-0.4L24-79.7c0,0-0.5-0.3-1.1-0.3c-0.6,0-1.1,0.4-1.1,0.4L2.1-65.9
							c0,0-0.3,0.2-0.4,0.4C1.7-65.3,1.7-65,1.7-65v22.5C1.7-42.5,1.8-42.1,1.9-41.9z"/>
					</g>
				</g>
				<path id="rentorr" class="st2" d="M66.9-63.8v3.5c0.9-2.4,2.6-3.6,5-3.6c0.5,0,1,0,1.3,0.1v4.5c-0.6-0.3-1.3-0.4-2-0.4
					c-1.3,0-2.3,0.5-3.1,1.6c-0.8,1-1.2,2.3-1.2,3.9v10.2h-4.7l0-19.7H66.9z M87.8-55.7v-0.6c0-1.2-0.4-2.2-1-3s-1.5-1.1-2.6-1.1
					c-1.1,0-2,0.4-2.7,1.2s-1.3,2-1.5,3.5H87.8z M90.8-49.3v4c-1.3,0.8-3.2,1.3-5.7,1.3c-3,0-5.4-0.9-7.2-2.8
					c-1.8-1.8-2.6-4.2-2.6-7.1c0-3.1,0.8-5.5,2.5-7.3c1.7-1.8,3.7-2.6,6.2-2.6c2.5,0,4.4,0.8,5.9,2.3c1.5,1.5,2.2,3.8,2.2,6.7
					c0,0.7-0.1,1.6-0.3,2.8H79.8c0.3,1.4,1,2.5,2,3.2s2.3,1.1,3.9,1.1C87.7-47.8,89.4-48.3,90.8-49.3z M99.3-63.7v3.4
					c1.1-2.4,3.2-3.6,6.1-3.6c2,0,3.6,0.6,4.7,1.8c1.2,1.2,1.7,2.9,1.7,5v13h-4.7v-12.1c0-1.3-0.3-2.3-0.9-2.9s-1.5-1-2.6-1
					c-1.2,0-2.3,0.5-3.1,1.4c-0.8,0.9-1.3,2.3-1.3,4v10.5h-4.7v-19.6H99.3z M121.9-60.1v9.8c0,0.8,0.2,1.4,0.6,1.8s1,0.6,1.8,0.6
					c1,0,1.9-0.3,2.7-0.8v3.9c-0.9,0.4-2,0.6-3.4,0.6c-4.2,0-6.2-2.1-6.2-6.3v-9.7h-2.9v-3.4h2.9v-4.6h4.6v4.6h4.8v3.4H121.9z
					 M139.1-44.1c-3,0-5.3-0.9-6.9-2.7s-2.5-4.1-2.5-7c0-2.9,0.9-5.4,2.6-7.3s4-2.9,6.8-2.9c3,0,5.3,0.9,7,2.8
					c1.6,1.9,2.5,4.2,2.5,7.1c0,2.9-0.8,5.3-2.5,7.2C144.4-45,142-44.1,139.1-44.1z M139-60.3c-1.5,0-2.6,0.6-3.4,1.8
					c-0.8,1.2-1.2,2.8-1.2,4.6c0,1.8,0.4,3.4,1.2,4.6c0.8,1.2,2,1.8,3.5,1.8c1.5,0,2.7-0.6,3.5-1.8c0.8-1.2,1.2-2.7,1.2-4.6
					c0-1.9-0.4-3.5-1.1-4.7C141.8-59.7,140.6-60.3,139-60.3z M155.8-63.8v3.5c0.9-2.4,2.6-3.6,5-3.6c0.5,0,1,0,1.3,0.1v4.5
					c-0.6-0.3-1.3-0.4-2-0.4c-1.3,0-2.3,0.5-3.1,1.6s-1.2,2.3-1.2,3.9v10.2h-4.7l0-19.7H155.8z M169.4-63.8v3.5
					c0.9-2.4,2.6-3.6,5-3.6c0.5,0,1,0,1.3,0.1v4.5c-0.6-0.3-1.3-0.4-2-0.4c-1.3,0-2.3,0.5-3.1,1.6s-1.2,2.3-1.2,3.9v10.2h-4.7
					l0-19.7H169.4z"/>
			</g>
		</g>
	</g>
</g>
</svg>
