<?xml version="1.0" encoding="utf-8"?>
<!-- Generator: Adobe Illustrator 19.0.0, SVG Export Plug-In . SVG Version: 6.00 Build 0)  -->
<svg version="1.1" id="Layer_1" xmlns="http://www.w3.org/2000/svg" xmlns:xlink="http://www.w3.org/1999/xlink" x="0px" y="0px"
	 viewBox="0 0 68 68" style="enable-background:new 0 0 68 68;" xml:space="preserve">
<style type="text/css">
	.st0{fill:#3E4B60;}
	.st1{fill:#1C9F79;}
</style>
<path id="XMLID_25_" class="st0" d="M21.1,60.1c-5.5,0-9.9-4.4-9.9-9.9V22.8c0-5.5,4.4-9.9,9.9-9.9h25c5.5,0,9.9,4.4,9.9,9.9v27.4
	c0,5.5-4.4,9.9-9.9,9.9H21.1z M21.1,15.9c-3.8,0-6.9,3.1-6.9,6.9v27.4c0,3.8,3.1,6.9,6.9,6.9h25c3.8,0,6.9-3.1,6.9-6.9V22.8
	c0-3.8-3.1-6.9-6.9-6.9H21.1z"/>
<path id="XMLID_24_" class="st0" d="M31.5,9.9c-0.3,0-0.6-0.1-0.9-0.3l-4.4-3.9l-4.4,3.9c-0.2,0.2-0.5,0.3-0.9,0.3
	c-0.4,0-0.7-0.2-1-0.4c-0.2-0.3-0.3-0.6-0.3-0.9c0-0.3,0.2-0.7,0.4-0.9L25.3,3c0.2-0.2,0.5-0.3,0.8-0.3l0.1,0c0.4,0,0.6,0.1,0.9,0.3
	l5.3,4.6c0.5,0.5,0.6,1.3,0.1,1.8C32.2,9.7,31.8,9.9,31.5,9.9z"/>
<path id="XMLID_23_" class="st0" d="M41,9.9L41,9.9L41,9.9c-0.2,0-0.3,0-0.3-0.1c-0.2-0.1-0.4-0.1-0.6-0.3l-5.3-4.6
	c-0.5-0.5-0.6-1.3-0.1-1.8c0.2-0.3,0.6-0.4,1-0.4c0.3,0,0.6,0.1,0.9,0.3L41,6.9L45.4,3c0.2-0.2,0.5-0.3,0.9-0.3c0.4,0,0.7,0.2,1,0.4
	c0.5,0.5,0.4,1.4-0.1,1.8l-5.3,4.6c-0.1,0.1-0.3,0.2-0.6,0.3C41.2,9.9,41.1,9.9,41,9.9L41,9.9L41,9.9z"/>
<path id="XMLID_7_" class="st1" d="M23.8,28.5c-2.7,0-5-2.2-5-5c0-2.7,2.2-5,5-5c2.7,0,5,2.2,5,5C28.8,26.3,26.5,28.5,23.8,28.5z
	 M23.8,21.2c-1.3,0-2.4,1.1-2.4,2.4c0,1.3,1.1,2.4,2.4,2.4c1.3,0,2.4-1.1,2.4-2.4C26.2,22.3,25.1,21.2,23.8,21.2z"/>
<path id="XMLID_4_" class="st1" d="M41.7,28.5c-2.7,0-5-2.2-5-5c0-2.7,2.2-5,5-5c2.7,0,5,2.2,5,5C46.6,26.3,44.4,28.5,41.7,28.5z
	 M41.7,21.2c-1.3,0-2.4,1.1-2.4,2.4c0,1.3,1.1,2.4,2.4,2.4c1.3,0,2.4-1.1,2.4-2.4C44,22.3,43,21.2,41.7,21.2z"/>
<path id="XMLID_3_" class="st1" d="M25.5,54.5l0-10.9l1,0c0.9,0,1.6-0.8,1.6-1.6v-7.1c0-0.9-0.8-1.6-1.6-1.6h-5.3
	c-0.9,0-1.6,0.8-1.6,1.6v7.1c0,0.9,0.8,1.6,1.6,1.6h0.9l0,10.9l-2.6,0l0-8.7c-1.6-0.6-2.6-2.2-2.6-3.9v-7.1c0-2.3,1.9-4.2,4.2-4.2
	h5.3c2.3,0,4.2,1.9,4.2,4.2v7.1c0,1.7-1,3.3-2.6,3.9l0,8.7H25.5z"/>
<path id="XMLID_2_" class="st1" d="M43.4,54.4l0-9.2c0-0.7,0.6-1.3,1.3-1.3h2.5c0.2,0,0.3,0,0.4-0.1c0.1-0.1,0.1-0.2,0.1-0.3
	l-3.8-10.4l-4.2,0l-3.7,10.4c0,0.1,0,0.2,0.1,0.3c0.1,0.1,0.2,0.1,0.4,0.1h2.5c0.7,0,1.3,0.6,1.3,1.3v9.2l-2.6,0l0-7.9l-0.7,0
	l-0.6,0c-1.1,0-2-0.4-2.5-1.2c-0.5-0.7-0.6-1.7-0.3-2.7l4.1-11.3c0.2-0.5,0.7-0.9,1.2-0.9h6c0.5,0,1,0.3,1.2,0.9L50,42.7
	c0.4,1,0.3,1.9-0.3,2.7c-0.5,0.7-1.4,1.1-2.4,1.1h-1.4l0,7.9H43.4z"/>
</svg>
