<?xml version="1.0" encoding="utf-8"?>
<!-- Generator: Adobe Illustrator 19.0.0, SVG Export Plug-In . SVG Version: 6.00 Build 0)  -->
<svg version="1.1" id="Layer_1" xmlns="http://www.w3.org/2000/svg" xmlns:xlink="http://www.w3.org/1999/xlink" x="0px" y="0px"
	 viewBox="0 0 50 50" style="enable-background:new 0 0 50 50;" xml:space="preserve">
<style type="text/css">
	.st0{fill:#3E4B60;}
</style>
<path class="st0" d="M14.2,49.7c-4.7,0-8.5-3.8-8.5-8.5V17.6c0-4.7,3.8-8.5,8.5-8.5h21.5c4.7,0,8.5,3.8,8.5,8.5v23.6
	c0,4.7-3.8,8.5-8.5,8.5H14.2z M14.2,11.7c-3.3,0-5.9,2.7-5.9,5.9v23.6c0,3.3,2.7,5.9,5.9,5.9h21.5c3.3,0,5.9-2.7,5.9-5.9V17.6
	c0-3.3-2.7-5.9-5.9-5.9H14.2z"/>
<path id="XMLID_8_" class="st0" d="M23.2,6.5c-0.3,0-0.5-0.1-0.7-0.3l-3.8-3.4l-3.8,3.4c-0.2,0.2-0.5,0.3-0.7,0.3
	c-0.3,0-0.6-0.1-0.8-0.4C13.1,5.9,13,5.6,13,5.3c0-0.3,0.2-0.6,0.4-0.8l4.5-4c0.2-0.2,0.4-0.3,0.7-0.3l0.1,0c0.3,0,0.6,0.1,0.7,0.3
	l4.5,4c0.5,0.4,0.5,1.1,0.1,1.6C23.8,6.3,23.5,6.5,23.2,6.5z"/>
<path id="XMLID_7_" class="st0" d="M31.4,6.5L31.4,6.5L31.4,6.5c-0.2,0-0.2,0-0.3,0c-0.2,0-0.4-0.1-0.5-0.2l-4.5-4
	c-0.5-0.4-0.5-1.1-0.1-1.6c0.2-0.2,0.5-0.4,0.8-0.4c0.3,0,0.5,0.1,0.7,0.3l3.8,3.4l3.8-3.4c0.2-0.2,0.5-0.3,0.7-0.3
	c0.3,0,0.6,0.1,0.8,0.4c0.4,0.5,0.4,1.2-0.1,1.6l-4.5,4c-0.1,0.1-0.3,0.2-0.5,0.2C31.6,6.5,31.5,6.5,31.4,6.5L31.4,6.5L31.4,6.5z"/>
<path class="st0" d="M16.6,22.5c-2.4,0-4.3-1.9-4.3-4.3c0-2.4,1.9-4.3,4.3-4.3c2.4,0,4.3,1.9,4.3,4.3C20.9,20.6,18.9,22.5,16.6,22.5
	z M16.6,16.2c-1.1,0-2,0.9-2,2c0,1.1,0.9,2,2,2c1.1,0,2-0.9,2-2C18.6,17.1,17.7,16.2,16.6,16.2z"/>
<path class="st0" d="M32,22.5c-2.4,0-4.3-1.9-4.3-4.3c0-2.4,1.9-4.3,4.3-4.3c2.4,0,4.3,1.9,4.3,4.3C36.2,20.6,34.3,22.5,32,22.5z
	 M32,16.2c-1.1,0-2,0.9-2,2c0,1.1,0.9,2,2,2c1.1,0,2-0.9,2-2C34,17.1,33.1,16.2,32,16.2z"/>
<path id="XMLID_2_" class="st0" d="M18.1,44.9l0-9.4l0.8,0c0.8,0,1.4-0.6,1.4-1.4v-6.1c0-0.8-0.6-1.4-1.4-1.4h-4.6
	c-0.8,0-1.4,0.6-1.4,1.4V34c0,0.8,0.6,1.4,1.4,1.4h0.8l0,9.4l-2.2,0l0-7.5c-1.4-0.5-2.2-1.9-2.2-3.3v-6.1c0-2,1.6-3.6,3.6-3.6h4.6
	c2,0,3.6,1.6,3.6,3.6V34c0,1.5-0.9,2.8-2.3,3.4l0,7.4H18.1z"/>
<path id="XMLID_1_" class="st0" d="M33.4,44.9l0-7.9c0-0.6,0.5-1.1,1.1-1.1h2.1c0.1,0,0.2,0,0.3-0.1c0-0.1,0.1-0.1,0.1-0.2l-3.2-9
	l-3.6,0L27,35.5c0,0.1,0,0.2,0,0.2c0.1,0.1,0.2,0.1,0.3,0.1h2.1c0.6,0,1.1,0.5,1.1,1.1v7.9l-2.2,0l0-6.8l-0.6,0l-0.5,0
	c-0.9,0-1.7-0.4-2.2-1c-0.4-0.6-0.5-1.4-0.2-2.3l3.5-9.7c0.2-0.4,0.6-0.7,1.1-0.7h5.2c0.5,0,0.9,0.3,1,0.7l3.5,9.7
	c0.3,0.9,0.2,1.7-0.2,2.3c-0.4,0.6-1.2,1-2.1,1h-1.2l0,6.8H33.4z"/>
</svg>
