<?xml version="1.0" encoding="utf-8"?>
<!-- Generator: Adobe Illustrator 16.0.0, SVG Export Plug-In . SVG Version: 6.00 Build 0)  -->
<!DOCTYPE svg PUBLIC "-//W3C//DTD SVG 1.1//EN" "http://www.w3.org/Graphics/SVG/1.1/DTD/svg11.dtd">
<svg version="1.1" id="Calque_1" xmlns="http://www.w3.org/2000/svg" xmlns:xlink="http://www.w3.org/1999/xlink" x="0px" y="0px"
	 width="54.5px" height="69.5px" viewBox="0 0 54.5 69.5" enable-background="new 0 0 54.5 69.5" xml:space="preserve">
<g>
	<path fill="#FFFFFF" d="M13.206,67.324c-6.312,0-11.446-5.135-11.446-11.446V24.296c0-6.312,5.135-11.446,11.446-11.446h28.85
		c6.311,0,11.444,5.135,11.444,11.446v31.582c0,6.313-5.135,11.446-11.444,11.446H13.206z M13.206,16.327
		c-4.394,0-7.969,3.575-7.969,7.969v31.582c0,4.395,3.575,7.969,7.969,7.969h28.85c4.394,0,7.968-3.574,7.968-7.969V24.296
		c0-4.394-3.574-7.969-7.968-7.969H13.206z"/>
	<path fill="#FFFFFF" d="M25.194,9.332c-0.364,0-0.715-0.133-0.988-0.373l-5.132-4.517l-5.078,4.517
		c-0.273,0.24-0.625,0.373-0.988,0.373c-0.431,0-0.84-0.185-1.124-0.508c-0.264-0.3-0.396-0.685-0.37-1.083s0.205-0.764,0.505-1.028
		l6.065-5.339c0.254-0.223,0.571-0.349,0.919-0.365l0.116-0.002c0.429,0.021,0.744,0.146,0.996,0.366l6.067,5.34
		c0.619,0.545,0.679,1.492,0.134,2.111C26.034,9.147,25.624,9.332,25.194,9.332z"/>
	<path fill="#FFFFFF" d="M36.166,9.33l-0.073-0.044l-0.037,0.033c-0.094-0.009-0.182-0.024-0.27-0.049
		c-0.265-0.063-0.477-0.164-0.643-0.313l-6.066-5.34c-0.619-0.544-0.68-1.491-0.135-2.111C29.226,1.185,29.636,1,30.066,1
		c0.364,0,0.715,0.132,0.987,0.373l5.131,4.516l5.08-4.516C41.537,1.132,41.89,1,42.252,1c0.431,0,0.841,0.185,1.123,0.507
		c0.545,0.62,0.484,1.567-0.135,2.111l-6.066,5.34c-0.167,0.147-0.379,0.249-0.646,0.313c-0.085,0.022-0.173,0.039-0.264,0.048
		l-0.08,0.013L36.166,9.33z"/>
	<path fill="#FFFFFF" d="M16.347,30.863c-3.158,0-5.727-2.568-5.727-5.724s2.568-5.725,5.727-5.725s5.728,2.568,5.728,5.725
		C22.074,28.295,19.505,30.863,16.347,30.863z M16.347,22.407c-1.508,0-2.734,1.226-2.734,2.732s1.227,2.731,2.734,2.731
		c1.509,0,2.735-1.226,2.735-2.731C19.082,23.633,17.855,22.407,16.347,22.407z"/>
	<path fill="#FFFFFF" d="M36.974,30.863c-3.157,0-5.728-2.568-5.728-5.724s2.569-5.725,5.728-5.725c3.157,0,5.728,2.568,5.728,5.725
		C42.701,28.295,40.132,30.863,36.974,30.863z M36.974,22.407c-1.509,0-2.734,1.226-2.734,2.732s1.227,2.731,2.734,2.731
		c1.509,0,2.734-1.226,2.734-2.731C39.709,23.633,38.482,22.407,36.974,22.407z"/>
	<path fill="#FFFFFF" d="M18.348,60.799l-0.054-12.567l1.125-0.04c1.03,0,1.901-0.871,1.901-1.901v-8.18
		c0-1.03-0.871-1.901-1.901-1.901h-6.146c-1.031,0-1.901,0.871-1.901,1.901v8.18c0,1.03,0.87,1.901,1.901,1.901h1.085l0.026,12.567
		l-2.952,0.04l-0.04-10.024c-1.82-0.728-3.013-2.502-3.013-4.484v-8.18c0-2.698,2.195-4.895,4.895-4.895h6.146
		c2.698,0,4.894,2.195,4.894,4.895v8.18c0,1.982-1.191,3.758-3.037,4.521l0.024,9.987H18.348z"/>
	<path fill="#FFFFFF" d="M38.95,60.776l-0.04-10.614c0-0.825,0.671-1.496,1.496-1.496h2.882c0.193-0.001,0.331-0.047,0.407-0.135
		c0.063-0.074,0.087-0.179,0.069-0.31l-4.336-12.053l-4.883,0.026l-4.285,11.998c-0.019,0.093-0.023,0.23,0.058,0.331
		c0.075,0.093,0.215,0.141,0.413,0.142h2.876c0.823,0,1.496,0.671,1.496,1.496v10.574l-2.952,0.04l-0.04-9.158l-0.825,0.04
		l-0.714,0.001c-1.218,0-2.298-0.499-2.889-1.335c-0.599-0.844-0.705-1.942-0.301-3.094l4.732-13.037
		c0.213-0.592,0.779-0.99,1.408-0.99h6.967c0.629,0,1.195,0.398,1.408,0.99l4.738,13.067c0.404,1.15,0.299,2.25-0.301,3.094
		c-0.597,0.844-1.598,1.31-2.816,1.31h-1.656l0.04,9.112H38.95z"/>
</g>
</svg>
